<svg id="Vrstva_1" data-name="Vrstva 1" xmlns="http://www.w3.org/2000/svg" viewBox="0 0 200 200"><defs><style>.cls-1{fill:#1d1d1b;}.cls-2{fill:#fff;}.cls-3{fill:#e95736;}</style></defs><rect class="cls-1" width="200" height="200"/><path class="cls-2" d="M73.16,117.7,41.4,101.82V94.43L73.16,78.54V85L50.26,96.2c-.93.45-1.81.83-2.62,1.15a17,17,0,0,1-1.81.63,13.76,13.76,0,0,1,1.92.62,21.52,21.52,0,0,1,2.51,1.15l22.9,11.3Z" transform="translate(0.56)"/><path class="cls-3" d="M82.81,132.85,109,63.4h7L89.83,132.85Z" transform="translate(0.56)"/><path class="cls-2" d="M125.71,117.7v-6.43L148.61,100c.93-.44,1.81-.82,2.62-1.14a17,17,0,0,1,1.81-.63,15.71,15.71,0,0,1-1.92-.63,23.2,23.2,0,0,1-2.51-1.14l-22.9-11.31V78.54l31.76,15.89v7.39Z" transform="translate(0.56)"/></svg>