<svg xmlns="http://www.w3.org/2000/svg" viewBox="0 0 200 200"><path d="M0 0h200v200H0z" fill="#1d1d1b"/><path d="M73.72 117.7l-31.76-15.88v-7.39l31.76-15.89V85l-22.9 11.2-2.62 1.15a17 17 0 0 1-1.81.63 13.76 13.76 0 0 1 1.92.62 21.52 21.52 0 0 1 2.51 1.15l22.9 11.3z" fill="#fff"/><path d="M83.37 132.85l26.19-69.45h7l-26.17 69.45z" fill="#e95736"/><path d="M126.27 117.7v-6.43l22.9-11.27 2.62-1.14a17 17 0 0 1 1.81-.63 15.71 15.71 0 0 1-1.92-.63 23.2 23.2 0 0 1-2.51-1.14l-22.9-11.31v-6.61l31.76 15.89v7.39z" fill="#fff"/></svg>
