<svg version="1.1" viewBox="0.0 0.0 440.4514435695538 146.66141732283464" fill="none" stroke="none" stroke-linecap="square" stroke-miterlimit="10" xmlns:xlink="http://www.w3.org/1999/xlink" xmlns="http://www.w3.org/2000/svg"><clipPath id="p.0"><path d="m0 0l440.45145 0l0 146.66142l-440.45145 0l0 -146.66142z" clip-rule="nonzero"/></clipPath><g clip-path="url(#p.0)"><path fill="#000000" fill-opacity="0.0" d="m0 0l440.45145 0l0 146.66142l-440.45145 0z" fill-rule="evenodd"/><path fill="#cc4125" d="m38.246696 20.878542c4.4533463 0 8.186962 0.1499443 11.200844 0.44983292c3.0138817 0.28489304 5.5779266 1.0346165 7.6921425 2.2491665c1.7993317 1.0346146 3.1038513 2.3841152 3.9135475 4.0484962c0.8097 1.6643829 1.21455 3.7111225 1.21455 6.1402206c0 2.9239159 -0.44233322 5.4579773 -1.3270073 7.6021805c-0.8696747 2.1292114 -2.3616219 3.8685646 -4.4758377 5.2180634c-2.1142159 1.3494987 -4.4083633 2.2416687 -6.8824463 2.676506c-2.474083 0.41984558 -5.802849 0.6297684 -9.986294 0.6297684l-17.27359 0l0 -29.014235zm5.0606194 40.282555c4.408367 0 8.149479 0.17243576 11.223335 0.5173073c3.0888596 0.32987976 5.712883 1.057106 7.872078 2.1816902c3.1938133 1.6643829 5.397999 3.6886292 6.612545 6.0727463c1.2145538 2.3841171 1.8218231 5.600418 1.8218231 9.648918c0 3.5536804 -0.58477783 6.4551086 -1.7543488 8.704269c-1.1695633 2.2491684 -3.0138779 4.250923 -5.5329437 6.005272c-2.3841133 1.6194 -5.442978 2.7364807 -9.176594 3.3512573c-3.7336159 0.5997772 -8.524338 0.89966583 -14.372166 0.89966583l-17.67844 0l0 -37.381126zm-34.344753 -51.68582l0 100.470215l35.626778 0c6.972412 0 12.715286 -0.6297684 17.228607 -1.8892975c4.5283203 -1.2595291 8.681778 -3.3737488 12.460373 -6.3426437c3.1938171 -2.474083 5.7353745 -5.622917 7.624672 -9.446495c1.8892975 -3.8235855 2.8339539 -8.231949 2.8339539 -13.225098c0 -6.972412 -1.9567795 -12.73777 -5.870323 -17.296078c-3.9135513 -4.5732994 -9.266563 -7.5571938 -16.059044 -8.951679l0 -0.53979874c4.0485 -2.02425 7.2873 -4.708252 9.7163925 -8.052013c2.4291 -3.3587494 3.6436539 -7.422245 3.6436539 -12.190475c0 -4.22843 -0.83219147 -7.8570805 -2.4965744 -10.88596c-1.6643829 -3.043871 -4.340889 -5.5329466 -8.029526 -7.467228c-3.328762 -1.7093658 -6.814968 -2.833949 -10.458614 -3.3737488c-3.64365 -0.5397997 -9.131611 -0.80969906 -16.46389 -0.80969906z" fill-rule="evenodd"/><path fill="#cc4125" d="m148.63573 70.40517l0 20.98471c-3.1488342 2.4291 -6.567566 4.513321 -10.256195 6.252678c-3.6886292 1.7243576 -7.759613 2.5865402 -12.212967 2.5865402c-5.353012 0 -9.33403 -1.0870972 -11.943062 -3.2612915c-2.6090317 -2.189186 -3.9135513 -5.442978 -3.9135513 -9.761375c0 -3.823578 1.1245804 -6.8224716 3.3737488 -8.996658c2.2491684 -2.1891937 5.195572 -3.801094 8.839218 -4.8357086c3.0588684 -0.8546829 7.2048187 -1.5069427 12.437881 -1.9567719c5.248062 -0.44983673 9.806366 -0.78720856 13.674927 -1.0121231zm-20.175003 -37.65103c-4.5433197 0 -9.154114 0.40485 -13.832375 1.21455c-4.678261 0.8097 -8.254433 1.5519218 -10.728516 2.2266731l0 12.887718l0.67474365 0c4.363388 -1.6643829 8.591812 -2.9314117 12.685295 -3.8010902c4.093483 -0.88467026 7.8046036 -1.3270073 11.133362 -1.3270073c2.743988 0 5.375519 0.17993164 7.894577 0.53979874c2.5190735 0.3598671 4.6782684 1.0571098 6.4776 2.0917244c1.8892975 1.0795975 3.336258 2.5640488 4.3408813 4.4533463c1.0196228 1.8893013 1.5294342 4.2734146 1.5294342 7.1523476l0 1.9567719c-7.3772583 0.3598671 -14.282196 0.89966583 -20.714813 1.6194c-6.4326096 0.7197342 -11.943062 2.0917244 -16.531364 4.1159706c-4.543312 2.0242538 -8.04451 4.8057175 -10.503601 8.344406c-2.4440842 3.5236893 -3.6661377 8.141975 -3.6661377 13.854858c0 6.972412 2.3616257 12.707787 7.0848694 17.206116c4.7232513 4.498329 10.48111 6.7474976 17.27359 6.7474976c3.6886292 0 6.9049454 -0.35237122 9.648918 -1.0571136c2.743988 -0.6897354 5.1730804 -1.551918 7.2872925 -2.5865402c1.7993317 -0.8097 3.6511536 -1.8967972 5.5554504 -3.2612839c1.919281 -1.3794937 3.4412231 -2.4515915 4.565796 -3.2163086l0 8.029518l12.617813 0l0 -51.14602c0 -4.8581963 -0.742218 -8.929184 -2.2266693 -12.212967c-1.4844513 -3.283783 -3.6436462 -5.960289 -6.4776 -8.029522c-2.8789215 -2.114212 -6.290161 -3.6061592 -10.233688 -4.4758377c-3.9285583 -0.88467026 -8.546829 -1.3270073 -13.854858 -1.3270073z" fill-rule="evenodd"/><path fill="#cc4125" d="m185.67949 34.57596l0 75.36953l12.685287 0l0 -53.50764c3.3737488 -2.7439842 6.8824463 -4.978153 10.526093 -6.7025146c3.6436462 -1.7393532 7.422241 -2.6090317 11.3358 -2.6090317c2.4290924 0 4.5283203 0.10496521 6.297653 0.3148842c1.7843475 0.19493103 3.6211548 0.5173073 5.5104523 0.9671402l0.6747589 0l0 -13.022667c-1.9792633 -0.3148842 -3.4637146 -0.52480316 -4.453354 -0.62976456c-0.989624 -0.119953156 -2.5865326 -0.17993546 -4.7907257 -0.17993546c-4.0035095 0 -7.9320526 0.84718704 -11.785614 2.5415573c-3.8385773 1.6793785 -8.276932 4.543316 -13.315063 8.591812l0 -11.133369z" fill-rule="evenodd"/><path fill="#cc4125" d="m290.60306 70.40517l0 20.98471c-3.1488342 2.4291 -6.567566 4.513321 -10.256195 6.252678c-3.6886292 1.7243576 -7.7596436 2.5865402 -12.212982 2.5865402c-5.352997 0 -9.334045 -1.0870972 -11.943054 -3.2612915c-2.6090393 -2.189186 -3.913559 -5.442978 -3.913559 -9.761375c0 -3.823578 1.124588 -6.8224716 3.3737488 -8.996658c2.2491608 -2.1891937 5.195572 -3.801094 8.839218 -4.8357086c3.0588684 -0.8546829 7.204834 -1.5069427 12.437897 -1.9567719c5.248047 -0.44983673 9.806335 -0.78720856 13.674927 -1.0121231zm-20.175018 -37.65103c-4.543335 0 -9.154114 0.40485 -13.832367 1.21455c-4.6782684 0.8097 -8.25444 1.5519218 -10.728531 2.2266731l0 12.887718l0.6747589 0c4.363373 -1.6643829 8.591812 -2.9314117 12.685303 -3.8010902c4.0934753 -0.88467026 7.804596 -1.3270073 11.133362 -1.3270073c2.743988 0 5.3754883 0.17993164 7.894562 0.53979874c2.5190735 0.3598671 4.678253 1.0571098 6.4776 2.0917244c1.8892822 1.0795975 3.3362427 2.5640488 4.3408813 4.4533463c1.0196228 1.8893013 1.5294495 4.2734146 1.5294495 7.1523476l0 1.9567719c-7.377289 0.3598671 -14.282227 0.89966583 -20.714813 1.6194c-6.432617 0.7197342 -11.943085 2.0917244 -16.531372 4.1159706c-4.5433197 2.0242538 -8.044525 4.8057175 -10.503601 8.344406c-2.4440918 3.5236893 -3.6661377 8.141975 -3.6661377 13.854858c0 6.972412 2.361618 12.707787 7.0848694 17.206116c4.723236 4.498329 10.48111 6.7474976 17.27359 6.7474976c3.6886292 0 6.9049377 -0.35237122 9.648926 -1.0571136c2.7439575 -0.6897354 5.173065 -1.551918 7.2872925 -2.5865402c1.7993164 -0.8097 3.651123 -1.8967972 5.55542 -3.2612839c1.919281 -1.3794937 3.4412231 -2.4515915 4.5658264 -3.2163086l0 8.029518l12.617798 0l0 -51.14602c0 -4.8581963 -0.742218 -8.929184 -2.226654 -12.212967c-1.4844666 -3.283783 -3.6436462 -5.960289 -6.4776 -8.029522c-2.8789368 -2.114212 -6.290161 -3.6061592 -10.233704 -4.4758377c-3.9285583 -0.88467026 -8.5468445 -1.3270073 -13.854858 -1.3270073z" fill-rule="evenodd"/><path fill="#cc4125" d="m336.8234 8.800525l0 13.157617l14.3046875 0l0 -13.157617zm-14.911957 25.775433l0 10.661045l15.721649 0l0 60.727467c0 3.6436462 -0.14993286 6.732506 -0.4498291 9.266556c-0.2848816 2.549057 -0.92214966 4.7232513 -1.9117737 6.522583c-0.98965454 1.7993317 -2.4740906 3.1488266 -4.453369 4.0485c-1.979248 0.89966583 -4.5882874 1.3494949 -7.8270874 1.3494949c-2.0242615 0 -4.1084595 -0.31488037 -6.2526855 -0.94464874c-2.1292114 -0.6297684 -3.823578 -1.1920547 -5.0830994 -1.6868744l-0.67477417 0l0 12.078018c1.9792786 0.5397949 4.438385 0.9896393 7.377289 1.3495026c2.953888 0.35986328 5.3305054 0.5397949 7.1298523 0.5397949c7.55719 0 13.584961 -2.2491608 18.083282 -6.7474976c4.4983215 -4.498329 6.7474976 -11.155861 6.7474976 -19.972588l0 -77.19135z" fill-rule="evenodd"/><path fill="#cc4125" d="m421.16708 70.40517l0 20.98471c-3.1488342 2.4291 -6.567566 4.513321 -10.256195 6.252678c-3.6886292 1.7243576 -7.759613 2.5865402 -12.212952 2.5865402c-5.3530273 0 -9.334045 -1.0870972 -11.943085 -3.2612915c-2.6090088 -2.189186 -3.9135437 -5.442978 -3.9135437 -9.761375c0 -3.823578 1.1246033 -6.8224716 3.3737488 -8.996658c2.249176 -2.1891937 5.195587 -3.801094 8.839233 -4.8357086c3.0588684 -0.8546829 7.204834 -1.5069427 12.437866 -1.9567719c5.248047 -0.44983673 9.806366 -0.78720856 13.674927 -1.0121231zm-20.175018 -37.65103c-4.5433044 0 -9.154083 0.40485 -13.832367 1.21455c-4.678253 0.8097 -8.254425 1.5519218 -10.728516 2.2266731l0 12.887718l0.67477417 0c4.363373 -1.6643829 8.591797 -2.9314117 12.685272 -3.8010902c4.0934753 -0.88467026 7.8046265 -1.3270073 11.133362 -1.3270073c2.743988 0 5.375519 0.17993164 7.8945923 0.53979874c2.519043 0.3598671 4.678253 1.0571098 6.4776 2.0917244c1.8892822 1.0795975 3.3362427 2.5640488 4.3408813 4.4533463c1.0196228 1.8893013 1.529419 4.2734146 1.529419 7.1523476l0 1.9567719c-7.3772583 0.3598671 -14.282196 0.89966583 -20.714813 1.6194c-6.432617 0.7197342 -11.943054 2.0917244 -16.531342 4.1159706c-4.543335 2.0242538 -8.044525 4.8057175 -10.503601 8.344406c-2.4440918 3.5236893 -3.6661682 8.141975 -3.6661682 13.854858c0 6.972412 2.3616333 12.707787 7.0849 17.206116c4.723236 4.498329 10.48111 6.7474976 17.27356 6.7474976c3.6886597 0 6.9049377 -0.35237122 9.648926 -1.0571136c2.743988 -0.6897354 5.1730957 -1.551918 7.2872925 -2.5865402c1.7993469 -0.8097 3.6511536 -1.8967972 5.5554504 -3.2612839c1.919281 -1.3794937 3.4412231 -2.4515915 4.565796 -3.2163086l0 8.029518l12.617828 0l0 -51.14602c0 -4.8581963 -0.742218 -8.929184 -2.2266846 -12.212967c-1.484436 -3.283783 -3.6436462 -5.960289 -6.4776 -8.029522c-2.8789062 -2.114212 -6.290161 -3.6061592 -10.233704 -4.4758377c-3.9285278 -0.88467026 -8.546814 -1.3270073 -13.854858 -1.3270073z" fill-rule="evenodd"/><path stroke="#990000" stroke-width="2.0" stroke-linejoin="round" stroke-linecap="butt" d="m38.246696 20.878542c4.4533463 0 8.186962 0.1499443 11.200844 0.44983292c3.0138817 0.28489304 5.5779266 1.0346165 7.6921425 2.2491665c1.7993317 1.0346146 3.1038513 2.3841152 3.9135475 4.0484962c0.8097 1.6643829 1.21455 3.7111225 1.21455 6.1402206c0 2.9239159 -0.44233322 5.4579773 -1.3270073 7.6021805c-0.8696747 2.1292114 -2.3616219 3.8685646 -4.4758377 5.2180634c-2.1142159 1.3494987 -4.4083633 2.2416687 -6.8824463 2.676506c-2.474083 0.41984558 -5.802849 0.6297684 -9.986294 0.6297684l-17.27359 0l0 -29.014235zm5.0606194 40.282555c4.408367 0 8.149479 0.17243576 11.223335 0.5173073c3.0888596 0.32987976 5.712883 1.057106 7.872078 2.1816902c3.1938133 1.6643829 5.397999 3.6886292 6.612545 6.0727463c1.2145538 2.3841171 1.8218231 5.600418 1.8218231 9.648918c0 3.5536804 -0.58477783 6.4551086 -1.7543488 8.704269c-1.1695633 2.2491684 -3.0138779 4.250923 -5.5329437 6.005272c-2.3841133 1.6194 -5.442978 2.7364807 -9.176594 3.3512573c-3.7336159 0.5997772 -8.524338 0.89966583 -14.372166 0.89966583l-17.67844 0l0 -37.381126zm-34.344753 -51.68582l0 100.470215l35.626778 0c6.972412 0 12.715286 -0.6297684 17.228607 -1.8892975c4.5283203 -1.2595291 8.681778 -3.3737488 12.460373 -6.3426437c3.1938171 -2.474083 5.7353745 -5.622917 7.624672 -9.446495c1.8892975 -3.8235855 2.8339539 -8.231949 2.8339539 -13.225098c0 -6.972412 -1.9567795 -12.73777 -5.870323 -17.296078c-3.9135513 -4.5732994 -9.266563 -7.5571938 -16.059044 -8.951679l0 -0.53979874c4.0485 -2.02425 7.2873 -4.708252 9.7163925 -8.052013c2.4291 -3.3587494 3.6436539 -7.422245 3.6436539 -12.190475c0 -4.22843 -0.83219147 -7.8570805 -2.4965744 -10.88596c-1.6643829 -3.043871 -4.340889 -5.5329466 -8.029526 -7.467228c-3.328762 -1.7093658 -6.814968 -2.833949 -10.458614 -3.3737488c-3.64365 -0.5397997 -9.131611 -0.80969906 -16.46389 -0.80969906z" fill-rule="evenodd"/><path stroke="#990000" stroke-width="2.0" stroke-linejoin="round" stroke-linecap="butt" d="m148.63573 70.40517l0 20.98471c-3.1488342 2.4291 -6.567566 4.513321 -10.256195 6.252678c-3.6886292 1.7243576 -7.759613 2.5865402 -12.212967 2.5865402c-5.353012 0 -9.33403 -1.0870972 -11.943062 -3.2612915c-2.6090317 -2.189186 -3.9135513 -5.442978 -3.9135513 -9.761375c0 -3.823578 1.1245804 -6.8224716 3.3737488 -8.996658c2.2491684 -2.1891937 5.195572 -3.801094 8.839218 -4.8357086c3.0588684 -0.8546829 7.2048187 -1.5069427 12.437881 -1.9567719c5.248062 -0.44983673 9.806366 -0.78720856 13.674927 -1.0121231zm-20.175003 -37.65103c-4.5433197 0 -9.154114 0.40485 -13.832375 1.21455c-4.678261 0.8097 -8.254433 1.5519218 -10.728516 2.2266731l0 12.887718l0.67474365 0c4.363388 -1.6643829 8.591812 -2.9314117 12.685295 -3.8010902c4.093483 -0.88467026 7.8046036 -1.3270073 11.133362 -1.3270073c2.743988 0 5.375519 0.17993164 7.894577 0.53979874c2.5190735 0.3598671 4.6782684 1.0571098 6.4776 2.0917244c1.8892975 1.0795975 3.336258 2.5640488 4.3408813 4.4533463c1.0196228 1.8893013 1.5294342 4.2734146 1.5294342 7.1523476l0 1.9567719c-7.3772583 0.3598671 -14.282196 0.89966583 -20.714813 1.6194c-6.4326096 0.7197342 -11.943062 2.0917244 -16.531364 4.1159706c-4.543312 2.0242538 -8.04451 4.8057175 -10.503601 8.344406c-2.4440842 3.5236893 -3.6661377 8.141975 -3.6661377 13.854858c0 6.972412 2.3616257 12.707787 7.0848694 17.206116c4.7232513 4.498329 10.48111 6.7474976 17.27359 6.7474976c3.6886292 0 6.9049454 -0.35237122 9.648918 -1.0571136c2.743988 -0.6897354 5.1730804 -1.551918 7.2872925 -2.5865402c1.7993317 -0.8097 3.6511536 -1.8967972 5.5554504 -3.2612839c1.919281 -1.3794937 3.4412231 -2.4515915 4.565796 -3.2163086l0 8.029518l12.617813 0l0 -51.14602c0 -4.8581963 -0.742218 -8.929184 -2.2266693 -12.212967c-1.4844513 -3.283783 -3.6436462 -5.960289 -6.4776 -8.029522c-2.8789215 -2.114212 -6.290161 -3.6061592 -10.233688 -4.4758377c-3.9285583 -0.88467026 -8.546829 -1.3270073 -13.854858 -1.3270073z" fill-rule="evenodd"/><path stroke="#990000" stroke-width="2.0" stroke-linejoin="round" stroke-linecap="butt" d="m185.67949 34.57596l0 75.36953l12.685287 0l0 -53.50764c3.3737488 -2.7439842 6.8824463 -4.978153 10.526093 -6.7025146c3.6436462 -1.7393532 7.422241 -2.6090317 11.3358 -2.6090317c2.4290924 0 4.5283203 0.10496521 6.297653 0.3148842c1.7843475 0.19493103 3.6211548 0.5173073 5.5104523 0.9671402l0.6747589 0l0 -13.022667c-1.9792633 -0.3148842 -3.4637146 -0.52480316 -4.453354 -0.62976456c-0.989624 -0.119953156 -2.5865326 -0.17993546 -4.7907257 -0.17993546c-4.0035095 0 -7.9320526 0.84718704 -11.785614 2.5415573c-3.8385773 1.6793785 -8.276932 4.543316 -13.315063 8.591812l0 -11.133369z" fill-rule="evenodd"/><path stroke="#990000" stroke-width="2.0" stroke-linejoin="round" stroke-linecap="butt" d="m290.60306 70.40517l0 20.98471c-3.1488342 2.4291 -6.567566 4.513321 -10.256195 6.252678c-3.6886292 1.7243576 -7.7596436 2.5865402 -12.212982 2.5865402c-5.352997 0 -9.334045 -1.0870972 -11.943054 -3.2612915c-2.6090393 -2.189186 -3.913559 -5.442978 -3.913559 -9.761375c0 -3.823578 1.124588 -6.8224716 3.3737488 -8.996658c2.2491608 -2.1891937 5.195572 -3.801094 8.839218 -4.8357086c3.0588684 -0.8546829 7.204834 -1.5069427 12.437897 -1.9567719c5.248047 -0.44983673 9.806335 -0.78720856 13.674927 -1.0121231zm-20.175018 -37.65103c-4.543335 0 -9.154114 0.40485 -13.832367 1.21455c-4.6782684 0.8097 -8.25444 1.5519218 -10.728531 2.2266731l0 12.887718l0.6747589 0c4.363373 -1.6643829 8.591812 -2.9314117 12.685303 -3.8010902c4.0934753 -0.88467026 7.804596 -1.3270073 11.133362 -1.3270073c2.743988 0 5.3754883 0.17993164 7.894562 0.53979874c2.5190735 0.3598671 4.678253 1.0571098 6.4776 2.0917244c1.8892822 1.0795975 3.3362427 2.5640488 4.3408813 4.4533463c1.0196228 1.8893013 1.5294495 4.2734146 1.5294495 7.1523476l0 1.9567719c-7.377289 0.3598671 -14.282227 0.89966583 -20.714813 1.6194c-6.432617 0.7197342 -11.943085 2.0917244 -16.531372 4.1159706c-4.5433197 2.0242538 -8.044525 4.8057175 -10.503601 8.344406c-2.4440918 3.5236893 -3.6661377 8.141975 -3.6661377 13.854858c0 6.972412 2.361618 12.707787 7.0848694 17.206116c4.723236 4.498329 10.48111 6.7474976 17.27359 6.7474976c3.6886292 0 6.9049377 -0.35237122 9.648926 -1.0571136c2.7439575 -0.6897354 5.173065 -1.551918 7.2872925 -2.5865402c1.7993164 -0.8097 3.651123 -1.8967972 5.55542 -3.2612839c1.919281 -1.3794937 3.4412231 -2.4515915 4.5658264 -3.2163086l0 8.029518l12.617798 0l0 -51.14602c0 -4.8581963 -0.742218 -8.929184 -2.226654 -12.212967c-1.4844666 -3.283783 -3.6436462 -5.960289 -6.4776 -8.029522c-2.8789368 -2.114212 -6.290161 -3.6061592 -10.233704 -4.4758377c-3.9285583 -0.88467026 -8.5468445 -1.3270073 -13.854858 -1.3270073z" fill-rule="evenodd"/><path stroke="#990000" stroke-width="2.0" stroke-linejoin="round" stroke-linecap="butt" d="m336.8234 8.800525l0 13.157617l14.3046875 0l0 -13.157617zm-14.911957 25.775433l0 10.661045l15.721649 0l0 60.727467c0 3.6436462 -0.14993286 6.732506 -0.4498291 9.266556c-0.2848816 2.549057 -0.92214966 4.7232513 -1.9117737 6.522583c-0.98965454 1.7993317 -2.4740906 3.1488266 -4.453369 4.0485c-1.979248 0.89966583 -4.5882874 1.3494949 -7.8270874 1.3494949c-2.0242615 0 -4.1084595 -0.31488037 -6.2526855 -0.94464874c-2.1292114 -0.6297684 -3.823578 -1.1920547 -5.0830994 -1.6868744l-0.67477417 0l0 12.078018c1.9792786 0.5397949 4.438385 0.9896393 7.377289 1.3495026c2.953888 0.35986328 5.3305054 0.5397949 7.1298523 0.5397949c7.55719 0 13.584961 -2.2491608 18.083282 -6.7474976c4.4983215 -4.498329 6.7474976 -11.155861 6.7474976 -19.972588l0 -77.19135z" fill-rule="evenodd"/><path stroke="#990000" stroke-width="2.0" stroke-linejoin="round" stroke-linecap="butt" d="m421.16708 70.40517l0 20.98471c-3.1488342 2.4291 -6.567566 4.513321 -10.256195 6.252678c-3.6886292 1.7243576 -7.759613 2.5865402 -12.212952 2.5865402c-5.3530273 0 -9.334045 -1.0870972 -11.943085 -3.2612915c-2.6090088 -2.189186 -3.9135437 -5.442978 -3.9135437 -9.761375c0 -3.823578 1.1246033 -6.8224716 3.3737488 -8.996658c2.249176 -2.1891937 5.195587 -3.801094 8.839233 -4.8357086c3.0588684 -0.8546829 7.204834 -1.5069427 12.437866 -1.9567719c5.248047 -0.44983673 9.806366 -0.78720856 13.674927 -1.0121231zm-20.175018 -37.65103c-4.5433044 0 -9.154083 0.40485 -13.832367 1.21455c-4.678253 0.8097 -8.254425 1.5519218 -10.728516 2.2266731l0 12.887718l0.67477417 0c4.363373 -1.6643829 8.591797 -2.9314117 12.685272 -3.8010902c4.0934753 -0.88467026 7.8046265 -1.3270073 11.133362 -1.3270073c2.743988 0 5.375519 0.17993164 7.8945923 0.53979874c2.519043 0.3598671 4.678253 1.0571098 6.4776 2.0917244c1.8892822 1.0795975 3.3362427 2.5640488 4.3408813 4.4533463c1.0196228 1.8893013 1.529419 4.2734146 1.529419 7.1523476l0 1.9567719c-7.3772583 0.3598671 -14.282196 0.89966583 -20.714813 1.6194c-6.432617 0.7197342 -11.943054 2.0917244 -16.531342 4.1159706c-4.543335 2.0242538 -8.044525 4.8057175 -10.503601 8.344406c-2.4440918 3.5236893 -3.6661682 8.141975 -3.6661682 13.854858c0 6.972412 2.3616333 12.707787 7.0849 17.206116c4.723236 4.498329 10.48111 6.7474976 17.27356 6.7474976c3.6886597 0 6.9049377 -0.35237122 9.648926 -1.0571136c2.743988 -0.6897354 5.1730957 -1.551918 7.2872925 -2.5865402c1.7993469 -0.8097 3.6511536 -1.8967972 5.5554504 -3.2612839c1.919281 -1.3794937 3.4412231 -2.4515915 4.565796 -3.2163086l0 8.029518l12.617828 0l0 -51.14602c0 -4.8581963 -0.742218 -8.929184 -2.2266846 -12.212967c-1.484436 -3.283783 -3.6436462 -5.960289 -6.4776 -8.029522c-2.8789062 -2.114212 -6.290161 -3.6061592 -10.233704 -4.4758377c-3.9285278 -0.88467026 -8.546814 -1.3270073 -13.854858 -1.3270073z" fill-rule="evenodd"/></g></svg>