<svg id="Vrstva_1" data-name="Vrstva 1" xmlns="http://www.w3.org/2000/svg" viewBox="0 0 255.85 77.92"><defs><style>.cls-1{fill:#fff;}.cls-2{fill:#e95736;}</style></defs><path class="cls-1" d="M258.87,233.53l-.21-62.26h7.5q0,8.37,0,16.74a27.92,27.92,0,0,1,12.53-2.57,15.8,15.8,0,0,1,8,2,13.64,13.64,0,0,1,3.1,2.55q4.15,4.59,4.16,12.51V216q0,7.83-4.16,12.42a15.44,15.44,0,0,1-3.09,2.55c-4,2.51-7.79,2.42-16.16,2.47C268.12,233.41,264.08,233.44,258.87,233.53Zm17.3-7.07a10,10,0,0,0,7.5-2.83c1.83-1.89,2.75-4.62,2.75-8.17V203q0-5.34-2.75-8.17a10,10,0,0,0-7.5-2.83,9.5,9.5,0,0,0-7.3,2.91c-1.8,1.95-2.71,4.65-2.71,8.09v12.51c0,3.44.91,6.14,2.71,8.08A9.47,9.47,0,0,0,276.17,226.46Z" transform="translate(-166.67 -171.17)"/><path class="cls-1" d="M303.19,233.53V187.68h7.34a45,45,0,0,1,12.08-.83c5.16.34,7.48,1.41,9,2.41a15,15,0,0,1,2.54,2.13q4.29,4.55,4.29,12.3v2.75H331v-2.09q0-5.41-2.63-8.29c-1.75-1.92-4.23-2.88-7.46-2.88a9.67,9.67,0,0,0-7.46,2.92c-1.81,1.94-2.71,4.7-2.71,8.25v29.18Z" transform="translate(-166.67 -171.17)"/><path class="cls-1" d="M342.84,249.1v-6.92H353.6q5.16,0,8-2.8c1.92-1.86,2.88-4.49,2.88-7.87V195.07H345.34v-6.83H372v43.27q0,8.09-5,12.83T353.6,249.1Zm24.41-67.25a5.31,5.31,0,0,1-3.9-1.42,5.19,5.19,0,0,1-1.42-3.84,5.49,5.49,0,0,1,1.42-4,5.93,5.93,0,0,1,7.79,0,5.44,5.44,0,0,1,1.42,4,5.16,5.16,0,0,1-1.42,3.84A5.28,5.28,0,0,1,367.25,181.85Z" transform="translate(-166.67 -171.17)"/><path class="cls-1" d="M201.12,233.27,166.67,215v-4.73L201.12,192v4.89L177,209.42c-1.14.55-2.31,1.12-3.5,1.72l-2.78,1.39,2.86,1.34c1.19.57,2.33,1.16,3.42,1.76l24.09,12.65Z" transform="translate(-166.67 -171.17)"/><path class="cls-2" d="M216.62,233.44l22.49-62.07h4l-22.49,62.07Z" transform="translate(-166.67 -171.17)"/><path class="cls-1" d="M388.06,228.28l24.09-12.65c1.09-.6,2.23-1.19,3.43-1.76s2.15-1,2.86-1.34l-2.78-1.39c-1.2-.6-2.37-1.17-3.51-1.72l-24.09-12.58V192l34.46,18.29V215l-34.46,18.3Z" transform="translate(-166.67 -171.17)"/></svg>