<svg id="Vrstva_1" data-name="Vrstva 1" xmlns="http://www.w3.org/2000/svg" viewBox="0 0 191.47 58.32"><defs><style>.cls-1{fill:#1d1d1b;}.cls-2{fill:#e95736;}</style></defs><path class="cls-1" d="M120.9,67.73q-.08-23.31-.16-46.6h5.62q0,6.27,0,12.53a20.81,20.81,0,0,1,9.37-1.92,11.74,11.74,0,0,1,6,1.52A10.22,10.22,0,0,1,144,35.17q3.12,3.44,3.12,9.36v10q0,5.86-3.12,9.3a11.06,11.06,0,0,1-2.31,1.91c-3,1.88-5.83,1.81-12.09,1.85C127.82,67.64,124.8,67.66,120.9,67.73Zm12.94-5.3a7.45,7.45,0,0,0,5.62-2.12,8.43,8.43,0,0,0,2.06-6.11V44.84a8.43,8.43,0,0,0-2.06-6.11,7.45,7.45,0,0,0-5.62-2.13,7.1,7.1,0,0,0-5.46,2.19,8.54,8.54,0,0,0-2,6.05V54.2a8.54,8.54,0,0,0,2,6A7.1,7.1,0,0,0,133.84,62.43Z" transform="translate(-51.9 -21.06)"/><path class="cls-1" d="M154.07,67.73V33.41h5.49a33.81,33.81,0,0,1,9-.62c3.87.25,5.6,1.06,6.74,1.81a10,10,0,0,1,1.9,1.59q3.22,3.39,3.22,9.2v2.06h-5.62V45.89a8.92,8.92,0,0,0-2-6.21,8.29,8.29,0,0,0-11.17,0,8.77,8.77,0,0,0-2,6.18V67.73Z" transform="translate(-51.9 -21.06)"/><path class="cls-1" d="M183.74,79.37V74.2h8a8.28,8.28,0,0,0,6-2.09,7.83,7.83,0,0,0,2.15-5.9V39H185.61V33.83h20V66.21a12.65,12.65,0,0,1-3.74,9.61q-3.75,3.56-10.05,3.55ZM202,29.05A4,4,0,0,1,199.09,28,3.85,3.85,0,0,1,198,25.11a4.07,4.07,0,0,1,1.06-3,4.44,4.44,0,0,1,5.83,0,4.07,4.07,0,0,1,1.07,3A3.86,3.86,0,0,1,204.92,28,3.93,3.93,0,0,1,202,29.05Z" transform="translate(-51.9 -21.06)"/><path class="cls-1" d="M77.68,67.53,51.9,53.84V50.29L77.68,36.6v3.67l-18,9.41c-.85.41-1.73.84-2.62,1.29L55,52l2.14,1c.89.43,1.75.87,2.56,1.32l18,9.47Z" transform="translate(-51.9 -21.06)"/><path class="cls-2" d="M89.28,67.66,106.11,21.2h3L92.27,67.66Z" transform="translate(-51.9 -21.06)"/><path class="cls-1" d="M217.58,63.8l18-9.47c.82-.45,1.67-.89,2.57-1.32s1.61-.76,2.14-1l-2.08-1c-.9-.45-1.77-.88-2.63-1.29l-18-9.41V36.6l25.79,13.69v3.55L217.58,67.53Z" transform="translate(-51.9 -21.06)"/></svg>