<svg xmlns="http://www.w3.org/2000/svg" viewBox="0 0 191.47 58.32"><path d="M69 46.67q-.08-23.31-.16-46.6h5.62q0 6.27 0 12.53a20.81 20.81 0 0 1 9.37-1.92 11.74 11.74 0 0 1 6 1.52 10.22 10.22 0 0 1 2.27 1.91q3.12 3.44 3.12 9.36v10q0 5.86-3.12 9.3a11.06 11.06 0 0 1-2.31 1.91c-3 1.88-5.83 1.81-12.09 1.85l-8.7.14zm12.94-5.3a7.45 7.45 0 0 0 5.62-2.12 8.43 8.43 0 0 0 2.06-6.11v-9.36a8.43 8.43 0 0 0-2.06-6.11 7.45 7.45 0 0 0-5.62-2.13 7.1 7.1 0 0 0-5.46 2.19 8.54 8.54 0 0 0-2 6.05v9.36a8.54 8.54 0 0 0 2 6 7.1 7.1 0 0 0 5.46 2.23zm20.23 5.3V12.35h5.49a33.81 33.81 0 0 1 9-.62c3.87.25 5.6 1.06 6.74 1.81a10 10 0 0 1 1.9 1.59q3.22 3.39 3.22 9.2v2.06h-5.62v-1.56a8.92 8.92 0 0 0-2-6.21 8.29 8.29 0 0 0-11.17 0 8.77 8.77 0 0 0-2 6.18v21.87zm29.67 11.64v-5.17h8a8.28 8.28 0 0 0 6-2.09 7.83 7.83 0 0 0 2.15-5.9V17.94h-14.28v-5.17h20v32.38a12.65 12.65 0 0 1-3.74 9.61q-3.75 3.56-10.05 3.55zM150.1 7.99a4 4 0 0 1-2.91-1.05 3.85 3.85 0 0 1-1.09-2.89 4.07 4.07 0 0 1 1.06-3 4.44 4.44 0 0 1 5.83 0 4.07 4.07 0 0 1 1.07 3 3.86 3.86 0 0 1-1.04 2.89 3.93 3.93 0 0 1-2.92 1.05zM25.78 46.47L0 32.78v-3.55l25.78-13.69v3.67l-18 9.41-2.62 1.29-2.06 1.03 2.14 1 2.56 1.32 18 9.47z" fill="#1d1d1b"/><path d="M37.38 46.6L54.21.14h3L40.37 46.6z" fill="#e95736"/><path d="M165.68 42.74l18-9.47 2.57-1.32 2.14-1-2.08-1-2.63-1.29-18-9.41v-3.71l25.79 13.69v3.55l-25.79 13.69z" fill="#1d1d1b"/></svg>
