<svg xmlns="http://www.w3.org/2000/svg" viewBox="0 0 200.56 200.56"><path d="M0 0h200.56v200.56H0z" fill="#fff"/><path d="M73.93 119.92L42.08 104v-7.42l31.85-15.93v6.44l-23 11.27-2.63 1.14a15 15 0 0 1-1.82.63 15.73 15.73 0 0 1 1.93.63 23.44 23.44 0 0 1 2.52 1.15l23 11.34z" fill="#1d1d1b"/><path d="M83.61 135.1l26.3-69.64h7L90.65 135.1z" fill="#e95736"/><path d="M126.62 119.92v-6.45l23-11.26 2.63-1.15a17 17 0 0 1 1.82-.63 15.2 15.2 0 0 1-1.93-.63 21.64 21.64 0 0 1-2.58-1.15l-23-11.33v-6.67l31.86 15.93V104z" fill="#1d1d1b"/></svg>
