<svg id="Vrstva_1" data-name="Vrstva 1" xmlns="http://www.w3.org/2000/svg" viewBox="0 0 200.56 200.56"><defs><style>.cls-1{fill:#fff;}.cls-2{fill:#1d1d1b;}.cls-3{fill:#e95736;}</style></defs><rect class="cls-1" width="200.56" height="200.56"/><path class="cls-2" d="M73.37,119.92,41.52,104V96.58L73.37,80.65v6.44l-23,11.27c-.94.44-1.82.82-2.63,1.14a15,15,0,0,1-1.82.63,15.73,15.73,0,0,1,1.93.63,23.44,23.44,0,0,1,2.52,1.15l23,11.34Z" transform="translate(0.56)"/><path class="cls-3" d="M83.05,135.1l26.3-69.64h7L90.09,135.1Z" transform="translate(0.56)"/><path class="cls-2" d="M126.06,119.92v-6.45l23-11.26c.94-.45,1.82-.83,2.63-1.15a17,17,0,0,1,1.82-.63,15.2,15.2,0,0,1-1.93-.63A21.64,21.64,0,0,1,149,98.65l-23-11.33V80.65l31.86,15.93V104Z" transform="translate(0.56)"/></svg>